<?xml version="1.0" standalone="no"?>
<!DOCTYPE svg PUBLIC "-//W3C//DTD SVG 20010904//EN"
 "http://www.w3.org/TR/2001/REC-SVG-20010904/DTD/svg10.dtd">
 <svg xmlns="http://www.w3.org/2000/svg" version="1.0" width="593.000000pt" height="106.000000pt" viewBox="0 0 593.000000 106.000000" preserveAspectRatio="xMidYMid meet">

 <g transform="translate(0.000000,106.000000) scale(0.100000,-0.100000)" fill="#f00000" stroke="none">
 <path d="M430 1039 c-109 -19 -217 -86 -256 -161 -41 -79 -26 -209 33 -278 59 -69 152 -105 333 -130 160 -22 229 -73 217 -163 -12 -86 -105 -133 -246 -125 -118 7 -199 51 -246 133 -10 16 -16 14 -80 -21 -39 -20 -72 -39 -73 -40 -2 -1 9 -26 24 -54 70 -129 213 -188 431 -178 236 11 368 120 368 303 0 94 -24 154 -82 204 -57 51 -129 78 -257 98 -56 8 -125 22 -155 30 -109 29 -145 111 -78 178 82 82 266 72 375 -20 l31 -26 65 33 c36 18 66 37 66 44 0 6 -18 32 -41 57 -87 100 -254 145 -429 116z"/>
 <path d="M1431 1025 c-188 -43 -326 -183 -367 -374 -80 -377 192 -676 567 -623 205 29 348 158 399 358 71 275 -59 539 -306 624 -78 27 -210 34 -293 15z m275 -188 c61 -31 98 -72 133 -147 23 -48 26 -68 26 -160 0 -92 -3 -112 -26 -160 -57 -122 -131 -171 -269 -178 -148 -7 -243 45 -302 166 -31 62 -33 73 -33 172 0 92 3 112 26 160 37 78 71 114 142 150 59 30 67 31 157 28 78 -4 104 -9 146 -31z"/>
 <path d="M2190 530 l0 -490 90 0 90 0 0 325 c0 179 4 325 9 325 4 0 37 -37 72 -83 35 -46 149 -192 253 -325 l189 -242 53 0 54 0 0 490 0 490 -90 0 -90 0 0 -306 0 -306 -81 103 c-44 57 -153 195 -242 307 l-160 202 -74 0 -73 0 0 -490z"/>
 <path d="M3170 530 l0 -490 208 0 c114 0 236 5 271 10 194 32 334 168 376 365 18 88 19 142 0 228 -32 151 -114 262 -239 322 -95 46 -164 55 -408 55 l-208 0 0 -490z m515 291 c120 -54 186 -178 172 -328 -11 -113 -66 -201 -155 -245 -41 -20 -66 -24 -200 -28 l-152 -5 0 319 0 319 143 -5 c119 -4 150 -8 192 -27z"/>
 <path d="M4170 530 l0 -490 365 0 365 0 0 90 0 90 -275 0 -275 0 0 110 0 110 265 0 265 0 0 85 0 85 -265 0 -265 0 0 115 0 115 275 0 275 0 0 90 0 90 -365 0 -365 0 0 -490z"/>
 <path d="M5040 530 l0 -490 90 0 90 0 0 165 0 165 93 0 93 0 143 -165 143 -165 109 0 c86 0 108 3 103 13 -5 6 -73 85 -152 175 -88 99 -138 164 -130 166 7 3 31 10 53 17 59 18 147 111 166 174 56 196 -44 375 -233 420 -47 11 -128 15 -315 15 l-253 0 0 -490z m563 296 c71 -48 94 -143 51 -216 -34 -59 -67 -68 -259 -71 l-170 -3 -3 158 -3 158 178 -4 c154 -3 182 -6 206 -22z"/>
 </g>
 </svg>
